<?xml version="1.0" encoding="UTF-8"?>
<svg width="132px" height="24px" viewBox="0 0 132 24" version="1.1" xmlns="http://www.w3.org/2000/svg" xmlns:xlink="http://www.w3.org/1999/xlink">
    <!-- Generator: Sketch 61.2 (89653) - https://sketch.com -->
    <title>logo</title>
    <desc>Created with Sketch.</desc>
    <g id="Page-1" stroke="none" stroke-width="1" fill="none" fill-rule="evenodd">
        <g id="logo" fill="#666666" fill-rule="nonzero">
            <path d="M0.664,17.625 L0.664,3.34 C0.664,2.48 1.326,1.818 2.185,1.818 L8.322,1.818 C10.482,1.818 12.175,2.456 13.28,3.536 C14.188,4.469 14.704,5.746 14.704,7.243 L14.704,7.292 C14.704,10.041 13.108,11.71 10.801,12.422 L14.09,16.57 C14.385,16.938 14.58,17.257 14.58,17.724 C14.58,18.558 13.87,19.123 13.133,19.123 C12.445,19.123 12.003,18.803 11.66,18.337 L7.487,13.011 L3.683,13.011 L3.683,17.625 C3.683,18.46 3.02,19.123 2.185,19.123 C1.326,19.123 0.664,18.46 0.664,17.625 Z M3.683,10.335 L8.1,10.335 C10.26,10.335 11.634,9.206 11.634,7.464 L11.634,7.414 C11.634,5.574 10.309,4.567 8.075,4.567 L3.682,4.567 L3.682,10.335 L3.683,10.335 Z M23.543,19.295 C19.592,19.295 16.671,16.275 16.671,12.594 L16.671,12.544 C16.671,8.838 19.616,5.77 23.593,5.77 C27.569,5.77 30.49,8.79 30.49,12.495 L30.49,12.545 C30.49,16.226 27.544,19.295 23.544,19.295 L23.543,19.295 Z M23.593,16.693 C25.998,16.693 27.52,14.827 27.52,12.593 L27.52,12.545 C27.52,10.262 25.875,8.372 23.544,8.372 C21.163,8.372 19.641,10.237 19.641,12.495 L19.641,12.545 C19.641,14.803 21.285,16.693 23.593,16.693 L23.593,16.693 Z M33.071,17.65 C33.071,18.485 33.733,19.123 34.543,19.123 C35.378,19.123 36.041,18.485 36.041,17.65 L36.041,11.685 C36.041,9.697 37.17,8.47 38.814,8.47 C40.459,8.47 41.441,9.6 41.441,11.612 L41.441,17.65 C41.441,18.485 42.103,19.123 42.938,19.123 C43.748,19.123 44.411,18.485 44.411,17.65 L44.411,11.685 C44.411,9.599 45.564,8.47 47.184,8.47 C48.854,8.47 49.811,9.575 49.811,11.636 L49.811,17.65 C49.811,18.485 50.473,19.123 51.308,19.123 C52.142,19.123 52.781,18.485 52.781,17.65 L52.781,10.728 C52.781,7.562 51.062,5.77 48.24,5.77 C46.276,5.77 44.902,6.678 43.87,8.053 C43.183,6.678 41.858,5.77 39.992,5.77 C38.004,5.77 36.875,6.85 36.041,8.004 L36.041,7.39 C36.041,6.555 35.378,5.893 34.543,5.893 C33.709,5.893 33.071,6.555 33.071,7.39 L33.071,17.65 L33.071,17.65 Z M58.184,11.612 L64.836,11.612 C64.64,9.697 63.511,8.2 61.546,8.2 C59.731,8.2 58.454,9.6 58.184,11.612 Z M66.554,17.576 C65.376,18.632 63.904,19.295 61.891,19.295 C58.135,19.295 55.239,16.57 55.239,12.569 L55.239,12.52 C55.239,8.814 57.865,5.77 61.571,5.77 C65.695,5.77 67.732,9.157 67.732,12.152 C67.732,12.986 67.094,13.575 66.333,13.575 L58.21,13.575 C58.529,15.686 60.026,16.865 61.94,16.865 C63.192,16.865 64.174,16.423 65.009,15.735 C65.229,15.564 65.426,15.465 65.769,15.465 C66.432,15.465 66.948,15.981 66.948,16.668 C66.948,17.036 66.776,17.355 66.555,17.576 L66.554,17.576 Z M76.499,19.295 C72.547,19.295 69.626,16.275 69.626,12.594 L69.626,12.544 C69.626,8.838 72.571,5.77 76.548,5.77 C80.524,5.77 83.445,8.79 83.445,12.495 L83.445,12.545 C83.445,16.226 80.499,19.295 76.499,19.295 Z M76.548,16.693 C78.953,16.693 80.475,14.827 80.475,12.593 L80.475,12.545 C80.475,10.262 78.83,8.372 76.499,8.372 C74.118,8.372 72.596,10.237 72.596,12.495 L72.596,12.545 C72.596,14.803 74.24,16.693 76.548,16.693 L76.548,16.693 Z M86.2708944,22.093 L86.2708944,7.145 C86.2708944,6.605 86.688,6.187 87.204,6.187 C87.744,6.187 88.161,6.605 88.161,7.145 L88.161,8.863 C89.192,7.341 90.689,6.04 93.021,6.04 C96.065,6.04 99.084,8.445 99.084,12.618 L99.084,12.668 C99.084,16.815 96.089,19.27 93.021,19.27 C90.665,19.27 89.143,17.994 88.161,16.57 L88.161,22.093 C88.161,22.633 87.768,23.0501056 87.228,23.0501056 C86.9730377,23.0538142 86.7273986,22.954213 86.5470928,22.7739072 C86.366787,22.5936014 86.2671858,22.3479623 86.2708944,22.093 Z M92.678,17.576 C95.132,17.576 97.145,15.76 97.145,12.692 L97.145,12.642 C97.145,9.648 95.083,7.734 92.678,7.734 C90.321,7.734 88.088,9.722 88.088,12.618 L88.088,12.668 C88.088,15.613 90.321,17.576 92.678,17.576 L92.678,17.576 Z M102.303,18.166 C102.303,18.706 102.72,19.123 103.26,19.123 C103.8,19.123 104.193,18.705 104.193,18.165 L104.193,1.916 C104.192449,1.38769197 103.764308,0.959551183 103.236,0.959 C102.72,0.959 102.303,1.401 102.303,1.916 L102.303,18.166 Z M119.022,7.145 C119.027364,6.89364481 118.931599,6.65065751 118.75619,6.47054754 C118.58078,6.29043757 118.340409,6.18828293 118.089,6.187 C117.549,6.187 117.156,6.605 117.156,7.145 L117.156,13.575 C117.156,15.956 115.512,17.552 113.352,17.552 C111.118,17.552 109.842,16.079 109.842,13.722 L109.842,7.145 C109.842,6.61630149 109.413698,6.18755188 108.885,6.187 C108.345,6.187 107.952,6.605 107.952,7.145 L107.952,14.189 C107.952,17.209 109.744,19.27 112.812,19.27 C114.996,19.27 116.297,18.165 117.156,16.79 L117.156,18.165 C117.156,18.705 117.574,19.123 118.089,19.123 C118.629,19.123 119.022,18.681 119.022,18.165 L119.022,7.145 L119.022,7.145 Z M127.027,19.245 C129.555,19.245 131.544,17.846 131.544,15.441 L131.544,15.391 C131.544,13.109 129.433,12.348 127.469,11.759 C125.775,11.244 124.204,10.777 124.204,9.575 L124.204,9.525 C124.204,8.47 125.162,7.685 126.659,7.685 C127.739,7.685 128.893,8.053 129.973,8.666 C130.102644,8.73033332 130.245274,8.76419496 130.39,8.765 C130.843777,8.77112158 131.216873,8.4087623 131.224,7.955 C131.224,7.586 131.004,7.316 130.758,7.169 C129.531,6.506 128.058,6.089 126.708,6.089 C124.204,6.089 122.388,7.537 122.388,9.722 L122.388,9.771 C122.388,12.103 124.598,12.79 126.585,13.355 C128.255,13.821 129.752,14.312 129.752,15.588 L129.752,15.638 C129.752,16.865 128.647,17.65 127.125,17.65 C125.751,17.65 124.401,17.184 123.1,16.3 C122.965256,16.2006992 122.801334,16.1489898 122.634,16.153 C122.179835,16.1463213 121.806126,16.5088418 121.799,16.963 C121.799,17.282 121.971,17.527 122.143,17.65 C123.517,18.632 125.358,19.245 127.027,19.245 Z" id="Shape"></path>
        </g>
    </g>
</svg>